<svg width="15" height="15" viewBox="0 0 15 15" fill="none" xmlns="http://www.w3.org/2000/svg">
<path d="M0.154905 14.8451C0.258176 14.9484 0.387263 15 0.52926 15C0.671256 15 0.800344 14.9484 0.903614 14.8451L7.5 8.24871L14.0964 14.8451C14.1997 14.9484 14.3287 15 14.4707 15C14.5998 15 14.7418 14.9484 14.8451 14.8451C15.0516 14.6386 15.0516 14.3029 14.8451 14.0964L8.24871 7.5L14.8451 0.903614C15.0516 0.697074 15.0516 0.361446 14.8451 0.154905C14.6386 -0.0516351 14.3029 -0.0516351 14.0964 0.154905L7.5 6.75129L0.903614 0.154905C0.697074 -0.0516351 0.361446 -0.0516351 0.154905 0.154905C-0.0516351 0.361446 -0.0516351 0.697074 0.154905 0.903614L6.75129 7.5L0.154905 14.0964C-0.0516351 14.3029 -0.0516351 14.6386 0.154905 14.8451Z" fill="white"/>
</svg>
